<?xml version="1.0" standalone="no"?>
<!DOCTYPE svg PUBLIC "-//W3C//DTD SVG 20010904//EN"
 "http://www.w3.org/TR/2001/REC-SVG-20010904/DTD/svg10.dtd">
<svg version="1.0" xmlns="http://www.w3.org/2000/svg"
 width="308.000000pt" height="308.000000pt" viewBox="0 0 308.000000 308.000000"
 preserveAspectRatio="xMidYMid meet">
<metadata>
Created by potrace 1.14, written by Peter Selinger 2001-2017
</metadata>
<g transform="translate(0.000000,308.000000) scale(0.100000,-0.100000)"
fill="#000000" stroke="none">
<path d="M1230 2643 c-105 -14 -224 -37 -273 -53 -99 -33 -307 -142 -307 -161
0 -5 -4 -9 -10 -9 -32 0 -230 -215 -261 -284 -7 -14 -15 -26 -19 -26 -3 0 -19
-29 -35 -65 -15 -36 -32 -65 -36 -65 -5 0 -5 -7 -2 -17 4 -11 3 -14 -5 -9 -8
4 -10 2 -6 -8 3 -8 -1 -27 -10 -44 -8 -16 -17 -42 -20 -58 -2 -16 -5 -31 -6
-34 -1 -3 -3 -9 -5 -15 -1 -5 -3 -12 -5 -15 -14 -25 -22 -323 -10 -377 5 -21
12 -51 15 -68 3 -16 8 -37 10 -45 2 -8 4 -18 4 -22 1 -3 14 -2 29 4 l28 11
-18 66 c-13 53 -16 99 -14 231 2 91 6 174 9 186 85 328 263 561 532 699 161
83 300 118 470 118 237 0 444 -74 633 -224 75 -59 167 -157 157 -167 -4 -4
-30 -7 -58 -7 -38 0 -52 -4 -52 -14 0 -11 22 -15 97 -19 106 -4 99 -7 112 63
14 81 16 124 5 131 -16 9 -29 -15 -29 -54 0 -57 -26 -52 -94 20 -33 35 -81 80
-104 98 -51 39 -111 80 -117 80 -2 0 -26 13 -52 28 -26 15 -77 38 -113 51 -36
13 -74 27 -85 32 -11 4 -38 11 -60 14 -22 3 -62 9 -90 14 -27 5 -57 9 -65 9
-8 0 -37 2 -65 4 -27 2 -61 3 -75 1z"/>
<path d="M997 2294 c-3 -3 -11 -7 -19 -8 -7 -1 -35 -12 -63 -25 -70 -31 -84
-37 -136 -59 -31 -13 -49 -28 -58 -49 -6 -16 -27 -37 -46 -47 -19 -11 -35 -25
-35 -33 0 -7 -4 -13 -10 -13 -5 0 -10 -6 -10 -14 0 -8 -6 -17 -12 -19 -8 -3
-5 -6 5 -6 11 -1 33 5 50 13 18 7 125 44 238 81 232 76 239 79 221 97 -6 6
-12 20 -12 30 0 10 -5 18 -11 18 -8 0 -8 5 1 15 10 13 9 15 -11 16 -13 0 -38
2 -55 4 -17 3 -34 2 -37 -1z"/>
<path d="M1270 2168 c-27 -22 -42 -22 -80 -3 -28 14 -33 13 -107 -21 -43 -19
-91 -41 -108 -49 -16 -7 -93 -41 -170 -75 -77 -34 -159 -71 -182 -81 -47 -21
-53 -32 -41 -74 6 -23 4 -36 -12 -57 -24 -33 -28 -113 -5 -121 14 -6 55 11
223 89 41 19 76 34 79 34 3 0 43 18 90 41 46 22 86 39 89 37 6 -6 -175 -108
-191 -108 -7 0 -15 -4 -17 -8 -6 -16 -95 -60 -151 -77 -32 -9 -69 -22 -81 -29
-35 -18 -13 -40 66 -70 53 -20 69 -23 82 -13 12 9 57 11 158 7 125 -4 147 -3
187 15 25 10 48 21 51 25 3 3 61 33 130 68 277 140 340 173 345 182 9 15 -41
170 -55 170 -4 0 -29 -10 -56 -22 -27 -12 -51 -22 -54 -23 -3 0 -38 -13 -78
-29 -40 -15 -75 -26 -78 -24 -2 3 45 31 106 64 61 32 113 67 116 76 3 10 -1
30 -8 45 -11 22 -20 28 -43 26 -70 -6 -109 -2 -124 12 -21 18 -53 16 -81 -7z"/>
<path d="M2288 1854 l-26 -14 15 -47 c20 -66 25 -308 8 -398 -27 -145 -64
-244 -133 -360 -45 -75 -52 -83 -132 -168 -199 -212 -452 -320 -745 -319 -214
1 -404 61 -580 185 -78 55 -208 184 -202 201 2 7 26 10 60 8 45 -2 57 1 57 13
0 8 -3 15 -7 16 -130 13 -185 13 -193 -1 -5 -8 -6 -18 -4 -22 3 -4 2 -8 -3 -8
-8 0 -13 -26 -16 -97 -1 -24 -6 -43 -12 -43 -5 0 -2 -5 8 -11 23 -13 27 -9 33
33 11 76 24 76 84 3 25 -29 48 -54 52 -54 8 -1 46 -32 80 -63 10 -10 20 -18
23 -18 3 0 27 -15 53 -33 88 -62 259 -133 346 -143 22 -3 43 -7 46 -9 36 -22
332 -23 369 -1 3 2 28 7 54 10 27 4 56 11 65 16 9 4 46 18 82 31 36 12 72 28
81 36 8 7 19 13 23 13 11 0 116 64 143 87 12 10 38 32 59 48 69 56 147 143
196 218 15 23 31 47 35 52 27 34 109 231 117 277 3 18 12 62 20 98 19 90 13
323 -11 412 l-18 66 -27 -14z"/>
<path d="M1380 1686 l-285 -144 0 -53 c-1 -61 23 -124 60 -159 l25 -23 127 42
c71 23 137 46 148 51 34 15 115 39 115 35 0 -5 -149 -76 -235 -112 -179 -75
-199 -90 -191 -138 2 -11 -3 -35 -10 -53 -18 -44 -15 -85 6 -76 8 3 53 19 100
36 47 16 94 34 105 39 11 5 88 33 170 62 l150 53 0 45 c0 58 48 142 125 218
51 51 80 89 80 105 0 5 -15 2 -55 -13 -49 -18 -150 -49 -152 -47 -3 3 40 25
87 44 14 6 46 20 72 31 26 12 52 21 57 21 6 0 11 16 11 35 0 40 -1 40 -41 19
-28 -14 -33 -14 -69 4 -38 19 -39 19 -97 -5 -32 -13 -71 -30 -88 -38 -188 -89
-176 -64 15 31 60 30 110 59 110 65 0 11 -41 69 -49 69 -3 0 -134 -65 -291
-144z"/>
<path d="M1595 1189 c-138 -60 -410 -171 -422 -172 -17 -1 -16 -8 7 -68 11
-28 20 -56 19 -62 -5 -43 -1 -47 40 -32 21 7 63 24 92 38 108 49 145 65 184
78 58 20 137 103 156 163 15 47 15 86 0 86 -3 -1 -37 -14 -76 -31z"/>
<path d="M1842 1144 c-12 -8 -22 -21 -22 -27 0 -21 -16 -37 -40 -42 -37 -7
-48 -25 -54 -85 -3 -30 -7 -64 -10 -75 -7 -35 11 -65 38 -65 30 0 51 29 59 82
l5 36 -29 -10 c-44 -15 -46 -3 -3 18 52 26 73 59 80 127 4 31 5 57 2 57 -2 0
-14 -7 -26 -16z"/>
<path d="M1415 897 c-66 -34 -122 -64 -125 -67 -3 -3 -22 -13 -43 -22 -21 -10
-40 -25 -44 -34 -7 -20 25 -64 66 -88 38 -22 73 -16 104 20 12 15 46 41 75 60
28 19 52 40 52 47 0 7 5 18 11 24 14 14 48 111 41 118 -8 8 -10 7 -137 -58z"/>
</g>
</svg>
